<mxfile host="app.diagrams.net" modified="2022-07-04T16:24:33.531Z" agent="5.0 (Macintosh; Intel Mac OS X 10_15_7) AppleWebKit/537.36 (KHTML, like Gecko) Chrome/103.0.0.0 Safari/537.36" etag="DbnoRu6P9LtZRt0GdKN4" version="20.0.4" type="github">
  <diagram id="iwfEqsWom43S9cjcCyzs" name="Page-1">
    <mxGraphModel dx="5363" dy="2171" grid="1" gridSize="10" guides="1" tooltips="1" connect="1" arrows="1" fold="1" page="1" pageScale="1" pageWidth="827" pageHeight="1169" math="0" shadow="0">
      <root>
        <mxCell id="0" />
        <mxCell id="1" parent="0" />
        <mxCell id="DHf0aTgH2rAv4yNCXsVN-1" value="" style="rounded=1;whiteSpace=wrap;html=1;sketch=0;glass=0;shadow=0;fillColor=#f5f5f5;strokeColor=#666666;fontColor=#333333;" parent="1" vertex="1">
          <mxGeometry x="-1540" y="720" width="940" height="620" as="geometry" />
        </mxCell>
        <mxCell id="MOAgJOzXlaSY8Mte8IRe-1" value="初中数学" style="rounded=1;whiteSpace=wrap;html=1;shadow=0;glass=0;sketch=0;fillColor=#d80073;fontColor=#ffffff;strokeColor=#A50040;" vertex="1" parent="1">
          <mxGeometry x="-1355" y="820" width="120" height="60" as="geometry" />
        </mxCell>
        <mxCell id="MOAgJOzXlaSY8Mte8IRe-2" value="高中数学" style="rounded=1;whiteSpace=wrap;html=1;shadow=0;glass=0;sketch=0;fillColor=#1ba1e2;fontColor=#ffffff;strokeColor=#006EAF;" vertex="1" parent="1">
          <mxGeometry x="-1205" y="820" width="120" height="60" as="geometry" />
        </mxCell>
        <mxCell id="MOAgJOzXlaSY8Mte8IRe-3" value="新概念英语 1" style="rounded=1;whiteSpace=wrap;html=1;shadow=0;glass=0;sketch=0;fillColor=#0050ef;fontColor=#ffffff;strokeColor=#001DBC;" vertex="1" parent="1">
          <mxGeometry x="-1055" y="820" width="120" height="60" as="geometry" />
        </mxCell>
        <mxCell id="MOAgJOzXlaSY8Mte8IRe-4" value="新概念英语 2" style="rounded=1;whiteSpace=wrap;html=1;shadow=0;glass=0;sketch=0;fillColor=#a20025;fontColor=#ffffff;strokeColor=#6F0000;" vertex="1" parent="1">
          <mxGeometry x="-905" y="820" width="120" height="60" as="geometry" />
        </mxCell>
        <mxCell id="MOAgJOzXlaSY8Mte8IRe-10" value="" style="rounded=1;whiteSpace=wrap;html=1;sketch=0;glass=0;shadow=0;fillColor=#f5f5f5;strokeColor=#666666;fontColor=#333333;" vertex="1" parent="1">
          <mxGeometry x="-320" y="390" width="1320" height="960" as="geometry" />
        </mxCell>
        <mxCell id="MOAgJOzXlaSY8Mte8IRe-19" value="&lt;span style=&quot;font-family: Helvetica; font-size: 12px;&quot;&gt;看英文电影&lt;/span&gt;&lt;br style=&quot;font-family: Helvetica; font-size: 12px;&quot;&gt;&lt;span style=&quot;font-family: Helvetica; font-size: 12px;&quot;&gt;学英语&lt;/span&gt;" style="ellipse;whiteSpace=wrap;html=1;rounded=1;shadow=0;glass=0;sketch=0;fontFamily=Tahoma;fontSize=16;fillColor=#60a917;fontColor=#ffffff;strokeColor=#2D7600;" vertex="1" parent="1">
          <mxGeometry x="-160" y="540" width="120" height="80" as="geometry" />
        </mxCell>
        <mxCell id="MOAgJOzXlaSY8Mte8IRe-41" value="" style="group" vertex="1" connectable="0" parent="1">
          <mxGeometry x="140" y="591" width="550" height="290" as="geometry" />
        </mxCell>
        <mxCell id="MOAgJOzXlaSY8Mte8IRe-18" value="Vue 技术栈" style="rounded=1;whiteSpace=wrap;html=1;shadow=0;glass=0;sketch=0;fontFamily=Tahoma;fontSize=16;fillColor=#f8cecc;strokeColor=#b85450;" vertex="1" parent="MOAgJOzXlaSY8Mte8IRe-41">
          <mxGeometry y="101" width="135" height="70" as="geometry" />
        </mxCell>
        <mxCell id="MOAgJOzXlaSY8Mte8IRe-20" value="Vue2/2.7/3 的使用" style="whiteSpace=wrap;html=1;fontSize=16;fontFamily=Tahoma;rounded=1;shadow=0;glass=0;sketch=0;" vertex="1" parent="MOAgJOzXlaSY8Mte8IRe-41">
          <mxGeometry x="180" width="160" height="40" as="geometry" />
        </mxCell>
        <mxCell id="MOAgJOzXlaSY8Mte8IRe-22" value="Vue 源码学习" style="whiteSpace=wrap;html=1;fontSize=16;fontFamily=Tahoma;rounded=1;shadow=0;glass=0;sketch=0;" vertex="1" parent="MOAgJOzXlaSY8Mte8IRe-41">
          <mxGeometry x="180" y="50" width="160" height="40" as="geometry" />
        </mxCell>
        <mxCell id="MOAgJOzXlaSY8Mte8IRe-25" value="Vue Router 学习" style="whiteSpace=wrap;html=1;fontSize=16;fontFamily=Tahoma;rounded=1;shadow=0;glass=0;sketch=0;" vertex="1" parent="MOAgJOzXlaSY8Mte8IRe-41">
          <mxGeometry x="180" y="100" width="160" height="40" as="geometry" />
        </mxCell>
        <mxCell id="MOAgJOzXlaSY8Mte8IRe-28" value="Vue Router 源码" style="whiteSpace=wrap;html=1;fontSize=16;fontFamily=Tahoma;rounded=1;shadow=0;glass=0;sketch=0;" vertex="1" parent="MOAgJOzXlaSY8Mte8IRe-41">
          <mxGeometry x="390" y="101" width="160" height="40" as="geometry" />
        </mxCell>
        <mxCell id="MOAgJOzXlaSY8Mte8IRe-31" value="Vuex 学习" style="whiteSpace=wrap;html=1;fontSize=16;fontFamily=Tahoma;rounded=1;shadow=0;glass=0;sketch=0;" vertex="1" parent="MOAgJOzXlaSY8Mte8IRe-41">
          <mxGeometry x="180" y="150" width="160" height="40" as="geometry" />
        </mxCell>
        <mxCell id="MOAgJOzXlaSY8Mte8IRe-33" value="Pinia 学习" style="whiteSpace=wrap;html=1;fontSize=16;fontFamily=Tahoma;rounded=1;shadow=0;glass=0;sketch=0;" vertex="1" parent="MOAgJOzXlaSY8Mte8IRe-41">
          <mxGeometry x="180" y="200" width="160" height="40" as="geometry" />
        </mxCell>
        <mxCell id="MOAgJOzXlaSY8Mte8IRe-34" value="Pinia 源码" style="whiteSpace=wrap;html=1;fontSize=16;fontFamily=Tahoma;rounded=1;shadow=0;glass=0;sketch=0;" vertex="1" parent="MOAgJOzXlaSY8Mte8IRe-41">
          <mxGeometry x="390" y="200" width="160" height="40" as="geometry" />
        </mxCell>
        <mxCell id="MOAgJOzXlaSY8Mte8IRe-37" value="Vue i18n 学习" style="whiteSpace=wrap;html=1;fontSize=16;fontFamily=Tahoma;rounded=1;shadow=0;glass=0;sketch=0;" vertex="1" parent="MOAgJOzXlaSY8Mte8IRe-41">
          <mxGeometry x="180" y="250" width="160" height="40" as="geometry" />
        </mxCell>
        <mxCell id="MOAgJOzXlaSY8Mte8IRe-23" style="edgeStyle=orthogonalEdgeStyle;rounded=0;orthogonalLoop=1;jettySize=auto;html=1;entryX=0;entryY=0.5;entryDx=0;entryDy=0;fontFamily=Tahoma;fontSize=16;" edge="1" parent="MOAgJOzXlaSY8Mte8IRe-41" source="MOAgJOzXlaSY8Mte8IRe-18" target="MOAgJOzXlaSY8Mte8IRe-20">
          <mxGeometry relative="1" as="geometry" />
        </mxCell>
        <mxCell id="MOAgJOzXlaSY8Mte8IRe-24" style="edgeStyle=orthogonalEdgeStyle;rounded=0;orthogonalLoop=1;jettySize=auto;html=1;entryX=0;entryY=0.5;entryDx=0;entryDy=0;fontFamily=Tahoma;fontSize=16;" edge="1" parent="MOAgJOzXlaSY8Mte8IRe-41" source="MOAgJOzXlaSY8Mte8IRe-18" target="MOAgJOzXlaSY8Mte8IRe-22">
          <mxGeometry relative="1" as="geometry" />
        </mxCell>
        <mxCell id="MOAgJOzXlaSY8Mte8IRe-30" style="edgeStyle=orthogonalEdgeStyle;rounded=0;orthogonalLoop=1;jettySize=auto;html=1;fontFamily=Tahoma;fontSize=16;" edge="1" parent="MOAgJOzXlaSY8Mte8IRe-41" source="MOAgJOzXlaSY8Mte8IRe-18" target="MOAgJOzXlaSY8Mte8IRe-25">
          <mxGeometry relative="1" as="geometry" />
        </mxCell>
        <mxCell id="MOAgJOzXlaSY8Mte8IRe-29" style="edgeStyle=orthogonalEdgeStyle;rounded=0;orthogonalLoop=1;jettySize=auto;html=1;fontFamily=Tahoma;fontSize=16;" edge="1" parent="MOAgJOzXlaSY8Mte8IRe-41" source="MOAgJOzXlaSY8Mte8IRe-25" target="MOAgJOzXlaSY8Mte8IRe-28">
          <mxGeometry relative="1" as="geometry" />
        </mxCell>
        <mxCell id="MOAgJOzXlaSY8Mte8IRe-38" style="edgeStyle=orthogonalEdgeStyle;rounded=0;orthogonalLoop=1;jettySize=auto;html=1;entryX=0;entryY=0.5;entryDx=0;entryDy=0;fontFamily=Tahoma;fontSize=16;" edge="1" parent="MOAgJOzXlaSY8Mte8IRe-41" source="MOAgJOzXlaSY8Mte8IRe-18" target="MOAgJOzXlaSY8Mte8IRe-31">
          <mxGeometry relative="1" as="geometry" />
        </mxCell>
        <mxCell id="MOAgJOzXlaSY8Mte8IRe-39" style="edgeStyle=orthogonalEdgeStyle;rounded=0;orthogonalLoop=1;jettySize=auto;html=1;entryX=0;entryY=0.5;entryDx=0;entryDy=0;fontFamily=Tahoma;fontSize=16;" edge="1" parent="MOAgJOzXlaSY8Mte8IRe-41" source="MOAgJOzXlaSY8Mte8IRe-18" target="MOAgJOzXlaSY8Mte8IRe-33">
          <mxGeometry relative="1" as="geometry" />
        </mxCell>
        <mxCell id="MOAgJOzXlaSY8Mte8IRe-35" style="edgeStyle=orthogonalEdgeStyle;rounded=0;orthogonalLoop=1;jettySize=auto;html=1;fontFamily=Tahoma;fontSize=16;" edge="1" parent="MOAgJOzXlaSY8Mte8IRe-41" source="MOAgJOzXlaSY8Mte8IRe-33" target="MOAgJOzXlaSY8Mte8IRe-34">
          <mxGeometry relative="1" as="geometry" />
        </mxCell>
        <mxCell id="MOAgJOzXlaSY8Mte8IRe-40" style="edgeStyle=orthogonalEdgeStyle;rounded=0;orthogonalLoop=1;jettySize=auto;html=1;entryX=0;entryY=0.5;entryDx=0;entryDy=0;fontFamily=Tahoma;fontSize=16;" edge="1" parent="MOAgJOzXlaSY8Mte8IRe-41" source="MOAgJOzXlaSY8Mte8IRe-18" target="MOAgJOzXlaSY8Mte8IRe-37">
          <mxGeometry relative="1" as="geometry" />
        </mxCell>
        <mxCell id="MOAgJOzXlaSY8Mte8IRe-43" value="&lt;font face=&quot;Helvetica&quot; style=&quot;font-size: 14px;&quot;&gt;&lt;span style=&quot;font-size: 14px;&quot;&gt;TypeScript 学习&lt;/span&gt;&lt;/font&gt;" style="ellipse;whiteSpace=wrap;html=1;rounded=1;shadow=0;glass=0;sketch=0;fontFamily=Tahoma;fontSize=14;fillColor=#d5e8d4;strokeColor=#82b366;" vertex="1" parent="1">
          <mxGeometry x="-190" y="676" width="180" height="120" as="geometry" />
        </mxCell>
        <mxCell id="MOAgJOzXlaSY8Mte8IRe-52" style="edgeStyle=orthogonalEdgeStyle;rounded=0;orthogonalLoop=1;jettySize=auto;html=1;entryX=0.5;entryY=0;entryDx=0;entryDy=0;fontFamily=Tahoma;fontSize=16;" edge="1" parent="1" source="MOAgJOzXlaSY8Mte8IRe-45" target="MOAgJOzXlaSY8Mte8IRe-46">
          <mxGeometry relative="1" as="geometry" />
        </mxCell>
        <mxCell id="MOAgJOzXlaSY8Mte8IRe-45" value="lodash 快速上手" style="whiteSpace=wrap;html=1;fontSize=16;fontFamily=Tahoma;rounded=1;shadow=0;glass=0;sketch=0;" vertex="1" parent="1">
          <mxGeometry x="115" y="1090" width="160" height="40" as="geometry" />
        </mxCell>
        <mxCell id="MOAgJOzXlaSY8Mte8IRe-46" value="lodash 源码学习" style="whiteSpace=wrap;html=1;fontSize=16;fontFamily=Tahoma;rounded=1;shadow=0;glass=0;sketch=0;" vertex="1" parent="1">
          <mxGeometry x="115" y="1170" width="160" height="40" as="geometry" />
        </mxCell>
        <mxCell id="MOAgJOzXlaSY8Mte8IRe-51" style="edgeStyle=orthogonalEdgeStyle;rounded=0;orthogonalLoop=1;jettySize=auto;html=1;fontFamily=Tahoma;fontSize=16;" edge="1" parent="1" source="MOAgJOzXlaSY8Mte8IRe-48" target="MOAgJOzXlaSY8Mte8IRe-45">
          <mxGeometry relative="1" as="geometry">
            <Array as="points">
              <mxPoint x="405" y="1070" />
              <mxPoint x="195" y="1070" />
            </Array>
          </mxGeometry>
        </mxCell>
        <mxCell id="MOAgJOzXlaSY8Mte8IRe-54" style="edgeStyle=orthogonalEdgeStyle;rounded=0;orthogonalLoop=1;jettySize=auto;html=1;fontFamily=Tahoma;fontSize=16;" edge="1" parent="1" source="MOAgJOzXlaSY8Mte8IRe-48" target="MOAgJOzXlaSY8Mte8IRe-53">
          <mxGeometry relative="1" as="geometry" />
        </mxCell>
        <mxCell id="MOAgJOzXlaSY8Mte8IRe-57" style="edgeStyle=orthogonalEdgeStyle;rounded=0;orthogonalLoop=1;jettySize=auto;html=1;fontFamily=Tahoma;fontSize=16;" edge="1" parent="1" source="MOAgJOzXlaSY8Mte8IRe-48" target="MOAgJOzXlaSY8Mte8IRe-56">
          <mxGeometry relative="1" as="geometry">
            <Array as="points">
              <mxPoint x="305" y="1070" />
              <mxPoint x="570" y="1070" />
            </Array>
          </mxGeometry>
        </mxCell>
        <mxCell id="MOAgJOzXlaSY8Mte8IRe-48" value="工具库学习" style="rounded=1;whiteSpace=wrap;html=1;shadow=0;glass=0;sketch=0;fontFamily=Tahoma;fontSize=16;fillColor=#e1d5e7;strokeColor=#9673a6;" vertex="1" parent="1">
          <mxGeometry x="280" y="980" width="150" height="70" as="geometry" />
        </mxCell>
        <mxCell id="MOAgJOzXlaSY8Mte8IRe-53" value="dayjs 入门使用" style="whiteSpace=wrap;html=1;fontSize=16;fontFamily=Tahoma;rounded=1;shadow=0;glass=0;sketch=0;" vertex="1" parent="1">
          <mxGeometry x="305" y="1090" width="160" height="40" as="geometry" />
        </mxCell>
        <mxCell id="MOAgJOzXlaSY8Mte8IRe-59" style="edgeStyle=orthogonalEdgeStyle;rounded=0;orthogonalLoop=1;jettySize=auto;html=1;fontFamily=Tahoma;fontSize=16;" edge="1" parent="1" source="MOAgJOzXlaSY8Mte8IRe-56" target="MOAgJOzXlaSY8Mte8IRe-58">
          <mxGeometry relative="1" as="geometry" />
        </mxCell>
        <mxCell id="MOAgJOzXlaSY8Mte8IRe-56" value="echarts 入门" style="whiteSpace=wrap;html=1;fontSize=16;fontFamily=Tahoma;rounded=1;shadow=0;glass=0;sketch=0;" vertex="1" parent="1">
          <mxGeometry x="490" y="1090" width="160" height="40" as="geometry" />
        </mxCell>
        <mxCell id="MOAgJOzXlaSY8Mte8IRe-58" value="echarts 经典案例学习" style="whiteSpace=wrap;html=1;fontSize=16;fontFamily=Tahoma;rounded=1;shadow=0;glass=0;sketch=0;" vertex="1" parent="1">
          <mxGeometry x="480" y="1170" width="200" height="40" as="geometry" />
        </mxCell>
        <mxCell id="MOAgJOzXlaSY8Mte8IRe-62" value="&lt;font face=&quot;Helvetica&quot; style=&quot;font-size: 14px;&quot;&gt;&lt;span style=&quot;font-size: 14px;&quot;&gt;业务代码学习&lt;br&gt;（研读他人以及其它业务&lt;br&gt;的代码实现）&lt;br&gt;&lt;/span&gt;&lt;/font&gt;" style="ellipse;whiteSpace=wrap;html=1;rounded=1;shadow=0;glass=0;sketch=0;fontFamily=Tahoma;fontSize=14;fillColor=#6a00ff;strokeColor=#3700CC;fontColor=#ffffff;" vertex="1" parent="1">
          <mxGeometry x="-190" y="850" width="180" height="120" as="geometry" />
        </mxCell>
        <mxCell id="MOAgJOzXlaSY8Mte8IRe-63" value="" style="rounded=1;whiteSpace=wrap;html=1;sketch=0;glass=0;shadow=0;fillColor=#f5f5f5;strokeColor=#666666;fontColor=#333333;" vertex="1" parent="1">
          <mxGeometry x="1280" y="390" width="1320" height="960" as="geometry" />
        </mxCell>
        <mxCell id="MOAgJOzXlaSY8Mte8IRe-64" value="" style="shape=singleArrow;whiteSpace=wrap;html=1;rounded=1;shadow=0;glass=0;sketch=0;fontFamily=Tahoma;fontSize=14;fillColor=#e6d0de;strokeColor=#996185;gradientColor=#d5739d;" vertex="1" parent="1">
          <mxGeometry x="-500" y="810" width="100" height="60" as="geometry" />
        </mxCell>
        <mxCell id="MOAgJOzXlaSY8Mte8IRe-66" value="" style="shape=singleArrow;whiteSpace=wrap;html=1;rounded=1;shadow=0;glass=0;sketch=0;fontFamily=Tahoma;fontSize=14;fillColor=#e6d0de;strokeColor=#996185;gradientColor=#d5739d;" vertex="1" parent="1">
          <mxGeometry x="1080" y="810" width="100" height="60" as="geometry" />
        </mxCell>
        <mxCell id="MOAgJOzXlaSY8Mte8IRe-72" style="edgeStyle=orthogonalEdgeStyle;rounded=0;orthogonalLoop=1;jettySize=auto;html=1;fontFamily=Tahoma;fontSize=14;" edge="1" parent="1" source="MOAgJOzXlaSY8Mte8IRe-68" target="MOAgJOzXlaSY8Mte8IRe-69">
          <mxGeometry relative="1" as="geometry" />
        </mxCell>
        <mxCell id="MOAgJOzXlaSY8Mte8IRe-73" style="edgeStyle=orthogonalEdgeStyle;rounded=0;orthogonalLoop=1;jettySize=auto;html=1;fontFamily=Tahoma;fontSize=14;" edge="1" parent="1" source="MOAgJOzXlaSY8Mte8IRe-68" target="MOAgJOzXlaSY8Mte8IRe-70">
          <mxGeometry relative="1" as="geometry" />
        </mxCell>
        <mxCell id="MOAgJOzXlaSY8Mte8IRe-75" style="edgeStyle=orthogonalEdgeStyle;rounded=0;orthogonalLoop=1;jettySize=auto;html=1;entryX=0;entryY=0.5;entryDx=0;entryDy=0;fontFamily=Tahoma;fontSize=14;" edge="1" parent="1" source="MOAgJOzXlaSY8Mte8IRe-68" target="MOAgJOzXlaSY8Mte8IRe-74">
          <mxGeometry relative="1" as="geometry" />
        </mxCell>
        <mxCell id="MOAgJOzXlaSY8Mte8IRe-68" value="Front UI" style="rounded=1;whiteSpace=wrap;html=1;shadow=0;glass=0;sketch=0;fontFamily=Tahoma;fontSize=14;fillColor=#f8cecc;strokeColor=#b85450;" vertex="1" parent="1">
          <mxGeometry x="1390" y="520" width="120" height="60" as="geometry" />
        </mxCell>
        <mxCell id="MOAgJOzXlaSY8Mte8IRe-69" value="AntV 组件使用掌握" style="whiteSpace=wrap;html=1;fontSize=16;fontFamily=Tahoma;rounded=1;shadow=0;glass=0;sketch=0;" vertex="1" parent="1">
          <mxGeometry x="1550" y="480" width="180" height="40" as="geometry" />
        </mxCell>
        <mxCell id="MOAgJOzXlaSY8Mte8IRe-70" value="VXE Table 使用掌握" style="whiteSpace=wrap;html=1;fontSize=16;fontFamily=Tahoma;rounded=1;shadow=0;glass=0;sketch=0;" vertex="1" parent="1">
          <mxGeometry x="1550" y="530" width="180" height="40" as="geometry" />
        </mxCell>
        <mxCell id="MOAgJOzXlaSY8Mte8IRe-74" value="Element UI 源码学习" style="whiteSpace=wrap;html=1;fontSize=16;fontFamily=Tahoma;rounded=1;shadow=0;glass=0;sketch=0;" vertex="1" parent="1">
          <mxGeometry x="1550" y="580" width="180" height="40" as="geometry" />
        </mxCell>
        <mxCell id="MOAgJOzXlaSY8Mte8IRe-76" value="前&lt;br&gt;端&lt;br&gt;组&lt;br&gt;件&lt;br&gt;库&lt;br&gt;搭&lt;br&gt;建" style="rounded=1;whiteSpace=wrap;html=1;shadow=0;glass=0;sketch=0;fontFamily=Tahoma;fontSize=14;fillColor=#f8cecc;strokeColor=#b85450;" vertex="1" parent="1">
          <mxGeometry x="2070" y="610" width="120" height="534" as="geometry" />
        </mxCell>
        <mxCell id="MOAgJOzXlaSY8Mte8IRe-77" value="仓库搭建" style="whiteSpace=wrap;html=1;fontSize=16;fontFamily=Tahoma;rounded=1;shadow=0;glass=0;sketch=0;" vertex="1" parent="1">
          <mxGeometry x="1930" y="510" width="100" height="70" as="geometry" />
        </mxCell>
        <mxCell id="MOAgJOzXlaSY8Mte8IRe-79" value="发布与&lt;br&gt;部署功能" style="whiteSpace=wrap;html=1;fontSize=16;fontFamily=Tahoma;rounded=1;shadow=0;glass=0;sketch=0;" vertex="1" parent="1">
          <mxGeometry x="1890" y="630" width="120" height="90" as="geometry" />
        </mxCell>
        <mxCell id="MOAgJOzXlaSY8Mte8IRe-83" value="版本更新" style="whiteSpace=wrap;html=1;fontSize=16;fontFamily=Tahoma;rounded=1;shadow=0;glass=0;sketch=0;" vertex="1" parent="1">
          <mxGeometry x="2230" y="660" width="120" height="90" as="geometry" />
        </mxCell>
        <mxCell id="MOAgJOzXlaSY8Mte8IRe-84" value="文档部署" style="whiteSpace=wrap;html=1;fontSize=16;fontFamily=Tahoma;rounded=1;shadow=0;glass=0;sketch=0;" vertex="1" parent="1">
          <mxGeometry x="1900" y="810" width="120" height="90" as="geometry" />
        </mxCell>
        <mxCell id="MOAgJOzXlaSY8Mte8IRe-85" value="单元测试" style="whiteSpace=wrap;html=1;fontSize=16;fontFamily=Tahoma;rounded=1;shadow=0;glass=0;sketch=0;" vertex="1" parent="1">
          <mxGeometry x="2225" y="805" width="120" height="90" as="geometry" />
        </mxCell>
        <mxCell id="MOAgJOzXlaSY8Mte8IRe-86" value="组件测试" style="whiteSpace=wrap;html=1;fontSize=16;fontFamily=Tahoma;rounded=1;shadow=0;glass=0;sketch=0;" vertex="1" parent="1">
          <mxGeometry x="1890" y="950" width="120" height="90" as="geometry" />
        </mxCell>
        <mxCell id="MOAgJOzXlaSY8Mte8IRe-87" value="" style="shape=singleArrow;whiteSpace=wrap;html=1;rounded=1;shadow=0;glass=0;sketch=0;fontFamily=Tahoma;fontSize=14;fillColor=#e6d0de;strokeColor=#996185;gradientColor=#d5739d;rotation=90;" vertex="1" parent="1">
          <mxGeometry x="1840" y="1450" width="100" height="60" as="geometry" />
        </mxCell>
        <mxCell id="MOAgJOzXlaSY8Mte8IRe-88" value="" style="rounded=1;whiteSpace=wrap;html=1;sketch=0;glass=0;shadow=0;fillColor=#f5f5f5;strokeColor=#666666;fontColor=#333333;" vertex="1" parent="1">
          <mxGeometry x="1290" y="1630" width="1320" height="960" as="geometry" />
        </mxCell>
        <mxCell id="MOAgJOzXlaSY8Mte8IRe-89" value="前端架构" style="rounded=1;whiteSpace=wrap;html=1;shadow=0;glass=0;sketch=0;fontFamily=Tahoma;fontSize=14;fillColor=#f8cecc;strokeColor=#b85450;" vertex="1" parent="1">
          <mxGeometry x="1350" y="1724" width="1180" height="60" as="geometry" />
        </mxCell>
        <mxCell id="MOAgJOzXlaSY8Mte8IRe-92" value="webpack" style="ellipse;whiteSpace=wrap;html=1;rounded=1;shadow=0;glass=0;sketch=0;fontFamily=Tahoma;fontSize=14;" vertex="1" parent="1">
          <mxGeometry x="1410" y="1850" width="120" height="80" as="geometry" />
        </mxCell>
        <mxCell id="MOAgJOzXlaSY8Mte8IRe-93" value="esbuild" style="ellipse;whiteSpace=wrap;html=1;rounded=1;shadow=0;glass=0;sketch=0;fontFamily=Tahoma;fontSize=14;" vertex="1" parent="1">
          <mxGeometry x="1560" y="1810" width="120" height="80" as="geometry" />
        </mxCell>
        <mxCell id="MOAgJOzXlaSY8Mte8IRe-94" value="gulp" style="ellipse;whiteSpace=wrap;html=1;rounded=1;shadow=0;glass=0;sketch=0;fontFamily=Tahoma;fontSize=14;" vertex="1" parent="1">
          <mxGeometry x="1580" y="1920" width="120" height="80" as="geometry" />
        </mxCell>
        <mxCell id="MOAgJOzXlaSY8Mte8IRe-95" value="git" style="ellipse;whiteSpace=wrap;html=1;rounded=1;shadow=0;glass=0;sketch=0;fontFamily=Tahoma;fontSize=14;" vertex="1" parent="1">
          <mxGeometry x="1730" y="1860" width="90" height="60" as="geometry" />
        </mxCell>
        <mxCell id="MOAgJOzXlaSY8Mte8IRe-96" value="github" style="ellipse;whiteSpace=wrap;html=1;rounded=1;shadow=0;glass=0;sketch=0;fontFamily=Tahoma;fontSize=14;" vertex="1" parent="1">
          <mxGeometry x="1890" y="1920" width="120" height="80" as="geometry" />
        </mxCell>
        <mxCell id="MOAgJOzXlaSY8Mte8IRe-97" value="husky" style="ellipse;whiteSpace=wrap;html=1;rounded=1;shadow=0;glass=0;sketch=0;fontFamily=Tahoma;fontSize=14;" vertex="1" parent="1">
          <mxGeometry x="1870" y="1810" width="120" height="80" as="geometry" />
        </mxCell>
        <mxCell id="MOAgJOzXlaSY8Mte8IRe-98" value="npm (yarn, pnpm)" style="ellipse;whiteSpace=wrap;html=1;rounded=1;shadow=0;glass=0;sketch=0;fontFamily=Tahoma;fontSize=14;" vertex="1" parent="1">
          <mxGeometry x="2040" y="1860" width="160" height="110" as="geometry" />
        </mxCell>
        <mxCell id="MOAgJOzXlaSY8Mte8IRe-99" value="CI/CD" style="ellipse;whiteSpace=wrap;html=1;rounded=1;shadow=0;glass=0;sketch=0;fontFamily=Tahoma;fontSize=14;" vertex="1" parent="1">
          <mxGeometry x="1740" y="1970" width="120" height="80" as="geometry" />
        </mxCell>
        <mxCell id="MOAgJOzXlaSY8Mte8IRe-100" value="Learn" style="ellipse;whiteSpace=wrap;html=1;rounded=1;shadow=0;glass=0;sketch=0;fontFamily=Tahoma;fontSize=14;" vertex="1" parent="1">
          <mxGeometry x="1880" y="2030" width="120" height="80" as="geometry" />
        </mxCell>
        <mxCell id="MOAgJOzXlaSY8Mte8IRe-101" value="changeset" style="ellipse;whiteSpace=wrap;html=1;rounded=1;shadow=0;glass=0;sketch=0;fontFamily=Tahoma;fontSize=14;" vertex="1" parent="1">
          <mxGeometry x="2050" y="2000" width="120" height="80" as="geometry" />
        </mxCell>
        <mxCell id="MOAgJOzXlaSY8Mte8IRe-102" value="lint" style="ellipse;whiteSpace=wrap;html=1;rounded=1;shadow=0;glass=0;sketch=0;fontFamily=Tahoma;fontSize=14;" vertex="1" parent="1">
          <mxGeometry x="2210" y="1960" width="120" height="80" as="geometry" />
        </mxCell>
        <mxCell id="MOAgJOzXlaSY8Mte8IRe-103" value="browserlist" style="ellipse;whiteSpace=wrap;html=1;rounded=1;shadow=0;glass=0;sketch=0;fontFamily=Tahoma;fontSize=14;" vertex="1" parent="1">
          <mxGeometry x="2225" y="1810" width="120" height="80" as="geometry" />
        </mxCell>
        <mxCell id="MOAgJOzXlaSY8Mte8IRe-104" value="caniuse" style="ellipse;whiteSpace=wrap;html=1;rounded=1;shadow=0;glass=0;sketch=0;fontFamily=Tahoma;fontSize=14;" vertex="1" parent="1">
          <mxGeometry x="2310" y="1880" width="120" height="80" as="geometry" />
        </mxCell>
        <mxCell id="MOAgJOzXlaSY8Mte8IRe-105" value="babel" style="ellipse;whiteSpace=wrap;html=1;rounded=1;shadow=0;glass=0;sketch=0;fontFamily=Tahoma;fontSize=14;" vertex="1" parent="1">
          <mxGeometry x="1520" y="2030" width="120" height="80" as="geometry" />
        </mxCell>
        <mxCell id="MOAgJOzXlaSY8Mte8IRe-106" value="vite" style="ellipse;whiteSpace=wrap;html=1;rounded=1;shadow=0;glass=0;sketch=0;fontFamily=Tahoma;fontSize=14;" vertex="1" parent="1">
          <mxGeometry x="1690" y="2060" width="120" height="80" as="geometry" />
        </mxCell>
        <mxCell id="MOAgJOzXlaSY8Mte8IRe-107" value="IDE 常用功能 / 技巧 / 快捷键&amp;nbsp;" style="ellipse;whiteSpace=wrap;html=1;rounded=1;shadow=0;glass=0;sketch=0;fontFamily=Tahoma;fontSize=14;fillColor=#6a00ff;strokeColor=#3700CC;fontColor=#ffffff;" vertex="1" parent="1">
          <mxGeometry x="-1390" y="950" width="230" height="140" as="geometry" />
        </mxCell>
        <mxCell id="MOAgJOzXlaSY8Mte8IRe-108" value="ES6 基础掌握" style="ellipse;shape=cloud;whiteSpace=wrap;html=1;rounded=1;shadow=0;glass=0;sketch=0;fontFamily=Tahoma;fontSize=14;fillColor=#d80073;fontColor=#ffffff;strokeColor=#A50040;" vertex="1" parent="1">
          <mxGeometry x="-1090" y="940" width="190" height="130" as="geometry" />
        </mxCell>
        <mxCell id="MOAgJOzXlaSY8Mte8IRe-109" value="linux 基础" style="ellipse;whiteSpace=wrap;html=1;rounded=1;shadow=0;glass=0;sketch=0;fontFamily=Tahoma;fontSize=14;" vertex="1" parent="1">
          <mxGeometry x="1590" y="2200" width="120" height="80" as="geometry" />
        </mxCell>
        <mxCell id="MOAgJOzXlaSY8Mte8IRe-115" style="edgeStyle=orthogonalEdgeStyle;rounded=0;orthogonalLoop=1;jettySize=auto;html=1;fontFamily=Tahoma;fontSize=14;" edge="1" parent="1" source="MOAgJOzXlaSY8Mte8IRe-110" target="MOAgJOzXlaSY8Mte8IRe-114">
          <mxGeometry relative="1" as="geometry" />
        </mxCell>
        <mxCell id="MOAgJOzXlaSY8Mte8IRe-117" style="edgeStyle=orthogonalEdgeStyle;rounded=0;orthogonalLoop=1;jettySize=auto;html=1;fontFamily=Tahoma;fontSize=14;" edge="1" parent="1" source="MOAgJOzXlaSY8Mte8IRe-110" target="MOAgJOzXlaSY8Mte8IRe-116">
          <mxGeometry relative="1" as="geometry" />
        </mxCell>
        <mxCell id="MOAgJOzXlaSY8Mte8IRe-110" value="前端环境部署" style="ellipse;whiteSpace=wrap;html=1;rounded=1;shadow=0;glass=0;sketch=0;fontFamily=Tahoma;fontSize=14;" vertex="1" parent="1">
          <mxGeometry x="1740" y="2160" width="120" height="80" as="geometry" />
        </mxCell>
        <mxCell id="MOAgJOzXlaSY8Mte8IRe-114" value="开发环境 （preview）" style="whiteSpace=wrap;html=1;fontSize=16;fontFamily=Tahoma;rounded=1;shadow=0;glass=0;sketch=0;" vertex="1" parent="1">
          <mxGeometry x="1910" y="2150" width="180" height="40" as="geometry" />
        </mxCell>
        <mxCell id="MOAgJOzXlaSY8Mte8IRe-116" value="生产环境" style="whiteSpace=wrap;html=1;fontSize=16;fontFamily=Tahoma;rounded=1;shadow=0;glass=0;sketch=0;" vertex="1" parent="1">
          <mxGeometry x="1910" y="2200" width="180" height="40" as="geometry" />
        </mxCell>
        <mxCell id="MOAgJOzXlaSY8Mte8IRe-118" value="基础设施完善" style="ellipse;whiteSpace=wrap;html=1;rounded=1;shadow=0;glass=0;sketch=0;fontFamily=Tahoma;fontSize=14;" vertex="1" parent="1">
          <mxGeometry x="1860" y="2270" width="180" height="80" as="geometry" />
        </mxCell>
        <mxCell id="MOAgJOzXlaSY8Mte8IRe-119" value="" style="shape=singleArrow;whiteSpace=wrap;html=1;rounded=1;shadow=0;glass=0;sketch=0;fontFamily=Tahoma;fontSize=14;fillColor=#e6d0de;strokeColor=#996185;gradientColor=#d5739d;rotation=-180;" vertex="1" parent="1">
          <mxGeometry x="1080" y="2090" width="100" height="60" as="geometry" />
        </mxCell>
        <mxCell id="MOAgJOzXlaSY8Mte8IRe-120" value="" style="rounded=1;whiteSpace=wrap;html=1;sketch=0;glass=0;shadow=0;fillColor=#f5f5f5;strokeColor=#666666;fontColor=#333333;" vertex="1" parent="1">
          <mxGeometry x="80" y="1800" width="845" height="600" as="geometry" />
        </mxCell>
        <mxCell id="MOAgJOzXlaSY8Mte8IRe-122" value="计算机原理" style="rounded=1;whiteSpace=wrap;html=1;shadow=0;glass=1;sketch=1;fontFamily=Tahoma;fontSize=14;" vertex="1" parent="1">
          <mxGeometry x="257.5" y="2020" width="120" height="60" as="geometry" />
        </mxCell>
        <mxCell id="MOAgJOzXlaSY8Mte8IRe-123" value="数据结构" style="rounded=1;whiteSpace=wrap;html=1;shadow=0;glass=1;sketch=1;fontFamily=Tahoma;fontSize=14;" vertex="1" parent="1">
          <mxGeometry x="437.5" y="2080" width="120" height="60" as="geometry" />
        </mxCell>
        <mxCell id="MOAgJOzXlaSY8Mte8IRe-124" value="基础算法" style="rounded=1;whiteSpace=wrap;html=1;shadow=0;glass=1;sketch=1;fontFamily=Tahoma;fontSize=14;" vertex="1" parent="1">
          <mxGeometry x="497.5" y="1950" width="120" height="60" as="geometry" />
        </mxCell>
        <mxCell id="MOAgJOzXlaSY8Mte8IRe-125" value="设计模式" style="rounded=1;whiteSpace=wrap;html=1;shadow=0;glass=1;sketch=1;fontFamily=Tahoma;fontSize=14;" vertex="1" parent="1">
          <mxGeometry x="627.5" y="2100" width="120" height="60" as="geometry" />
        </mxCell>
        <mxCell id="MOAgJOzXlaSY8Mte8IRe-126" value="数据库技术" style="rounded=1;whiteSpace=wrap;html=1;shadow=0;glass=1;sketch=1;fontFamily=Tahoma;fontSize=14;" vertex="1" parent="1">
          <mxGeometry x="497.5" y="2220" width="120" height="60" as="geometry" />
        </mxCell>
        <mxCell id="MOAgJOzXlaSY8Mte8IRe-127" value="" style="shape=singleArrow;whiteSpace=wrap;html=1;rounded=1;shadow=0;glass=0;sketch=0;fontFamily=Tahoma;fontSize=14;fillColor=#e6d0de;strokeColor=#996185;gradientColor=#d5739d;rotation=90;" vertex="1" parent="1">
          <mxGeometry x="452.5" y="2460" width="100" height="60" as="geometry" />
        </mxCell>
        <mxCell id="MOAgJOzXlaSY8Mte8IRe-129" value="" style="rounded=1;whiteSpace=wrap;html=1;sketch=0;glass=0;shadow=0;fillColor=#f5f5f5;strokeColor=#666666;fontColor=#333333;" vertex="1" parent="1">
          <mxGeometry x="70" y="2623" width="845" height="600" as="geometry" />
        </mxCell>
        <mxCell id="MOAgJOzXlaSY8Mte8IRe-130" value="nodejs" style="rounded=1;whiteSpace=wrap;html=1;shadow=0;glass=1;sketch=1;fontFamily=Tahoma;fontSize=14;" vertex="1" parent="1">
          <mxGeometry x="295" y="2160" width="120" height="60" as="geometry" />
        </mxCell>
        <mxCell id="MOAgJOzXlaSY8Mte8IRe-131" value="express" style="rounded=1;whiteSpace=wrap;html=1;shadow=0;glass=1;sketch=1;fontFamily=Tahoma;fontSize=14;" vertex="1" parent="1">
          <mxGeometry x="650" y="2270" width="120" height="60" as="geometry" />
        </mxCell>
        <mxCell id="MOAgJOzXlaSY8Mte8IRe-132" value="koa" style="rounded=1;whiteSpace=wrap;html=1;shadow=0;glass=1;sketch=1;fontFamily=Tahoma;fontSize=14;" vertex="1" parent="1">
          <mxGeometry x="325" y="2250" width="120" height="60" as="geometry" />
        </mxCell>
        <mxCell id="MOAgJOzXlaSY8Mte8IRe-133" value="mognoDB" style="rounded=1;whiteSpace=wrap;html=1;shadow=0;glass=1;sketch=1;fontFamily=Tahoma;fontSize=14;" vertex="1" parent="1">
          <mxGeometry x="747.5" y="2190" width="120" height="60" as="geometry" />
        </mxCell>
        <mxCell id="MOAgJOzXlaSY8Mte8IRe-134" value="SQL" style="rounded=1;whiteSpace=wrap;html=1;shadow=0;glass=1;sketch=1;fontFamily=Tahoma;fontSize=14;" vertex="1" parent="1">
          <mxGeometry x="465" y="2330" width="120" height="60" as="geometry" />
        </mxCell>
        <mxCell id="MOAgJOzXlaSY8Mte8IRe-135" value="基础后端" style="rounded=1;whiteSpace=wrap;html=1;shadow=0;glass=1;sketch=1;fontFamily=Tahoma;fontSize=14;" vertex="1" parent="1">
          <mxGeometry x="280" y="2750" width="120" height="60" as="geometry" />
        </mxCell>
      </root>
    </mxGraphModel>
  </diagram>
</mxfile>
